HIERARCHY
ROOT Hips
{
	OFFSET 0.000000 83.214638 0.000000
	CHANNELS 6 Xposition Yposition Zposition Xrotation Yrotation Zrotation
	JOINT Pelvis
	{
		OFFSET 0.000000 0.000000 0.000000
		CHANNELS 3 Xrotation Yrotation Zrotation
		JOINT LeftUpLeg
		{
			OFFSET 8.479700 -4.795502 -0.379100
			CHANNELS 3 Xrotation Yrotation Zrotation
			JOINT LeftLeg
			{
				OFFSET 0.024144 -32.555107 0.112900
				CHANNELS 3 Xrotation Yrotation Zrotation
				JOINT LeftFoot
				{
					OFFSET -0.024144 -32.638630 -3.012600
					CHANNELS 3 Xrotation Yrotation Zrotation
					JOINT LeftToeBase
					{
						OFFSET 0.970200 -13.225400 11.864200
						CHANNELS 3 Xrotation Yrotation Zrotation
						End Site
						{
							OFFSET 0.000000 12.319262 0.000000
						}
					}
					JOINT LFootTongue
					{
						OFFSET 1.142400 -1.059800 6.665200
						CHANNELS 3 Xrotation Yrotation Zrotation
						End Site
						{
							OFFSET 0.000000 12.319262 0.000000
						}
					}
				}
				JOINT LeftPantLeg
				{
					OFFSET 0.918482 -16.533964 -2.284700
					CHANNELS 3 Xrotation Yrotation Zrotation
					End Site
					{
						OFFSET 0.350399 24.744368 0.000000
					}
				}
			}
		}
		JOINT RightUpLeg
		{
			OFFSET -8.479700 -4.795502 -0.379100
			CHANNELS 3 Xrotation Yrotation Zrotation
			JOINT RightLeg
			{
				OFFSET -0.023144 -32.555092 0.112900
				CHANNELS 3 Xrotation Yrotation Zrotation
				JOINT RightFoot
				{
					OFFSET 0.023144 -32.638641 -3.012700
					CHANNELS 3 Xrotation Yrotation Zrotation
					JOINT RightToeBase
					{
						OFFSET -0.970200 -13.225400 11.864200
						CHANNELS 3 Xrotation Yrotation Zrotation
						End Site
						{
							OFFSET 0.000000 12.319244 0.000000
						}
					}
					JOINT RFootTongue
					{
						OFFSET -1.142200 -1.059800 6.665200
						CHANNELS 3 Xrotation Yrotation Zrotation
						End Site
						{
							OFFSET 0.000000 12.319243 0.000000
						}
					}
				}
				JOINT RightPantLeg
				{
					OFFSET -0.919482 -16.533978 -2.284800
					CHANNELS 3 Xrotation Yrotation Zrotation
					End Site
					{
						OFFSET -0.350400 24.744419 0.000000
					}
				}
			}
		}
	}
	JOINT Spine
	{
		OFFSET 0.000000 7.722000 1.166200
		CHANNELS 3 Xrotation Yrotation Zrotation
		JOINT Spine1
		{
			OFFSET 0.000000 12.024101 0.248800
			CHANNELS 3 Xrotation Yrotation Zrotation
			JOINT Spine2
			{
				OFFSET 0.000000 11.502998 -0.491200
				CHANNELS 3 Xrotation Yrotation Zrotation
				JOINT Neck
				{
					OFFSET 0.000000 18.430702 -3.123100
					CHANNELS 3 Xrotation Yrotation Zrotation
					JOINT Head
					{
						OFFSET 0.000000 9.051102 1.034000
						CHANNELS 3 Xrotation Yrotation Zrotation
						JOINT HairB
						{
							OFFSET 0.208400 24.786102 24.822300
							CHANNELS 3 Xrotation Yrotation Zrotation
							End Site
							{
								OFFSET 0.000000 32.263779 0.000000
							}
						}
						JOINT HairA
						{
							OFFSET -7.081100 24.428299 23.196600
							CHANNELS 3 Xrotation Yrotation Zrotation
							End Site
							{
								OFFSET 0.000000 32.263779 0.000000
							}
						}
						JOINT Hat
						{
							OFFSET 16.728800 15.048294 -15.439601
							CHANNELS 3 Xrotation Yrotation Zrotation
							End Site
							{
								OFFSET 0.000000 32.263779 0.000000
							}
						}
					}
				}
				JOINT LeftShoulder
				{
					OFFSET 6.197800 13.665199 -4.064700
					CHANNELS 3 Xrotation Yrotation Zrotation
					JOINT LeftArm
					{
						OFFSET 7.778100 -0.187103 -1.709300
						CHANNELS 3 Xrotation Yrotation Zrotation
						JOINT LeftForeArm
						{
							OFFSET 22.049376 0.000000 0.000000
							CHANNELS 3 Xrotation Yrotation Zrotation
							JOINT LeftHand
							{
								OFFSET 23.009392 0.000000 0.000000
								CHANNELS 3 Xrotation Yrotation Zrotation
								JOINT LeftHandThumb1
								{
									OFFSET 3.507191 -2.063065 3.133727
									CHANNELS 3 Xrotation Yrotation Zrotation
									JOINT LeftHandThumb2
									{
										OFFSET 3.101337 -1.790558 1.790558
										CHANNELS 3 Xrotation Yrotation Zrotation
										JOINT LeftHandThumb3
										{
											OFFSET 3.058640 -1.765907 1.765906
											CHANNELS 3 Xrotation Yrotation Zrotation
											End Site
											{
												OFFSET -0.415260 3.926476 -0.049563
											}
										}
									}
								}
								JOINT LeftHandIndex1
								{
									OFFSET 11.334419 -0.901459 3.706815
									CHANNELS 3 Xrotation Yrotation Zrotation
									JOINT LeftHandIndex2
									{
										OFFSET 3.283112 0.000000 0.000000
										CHANNELS 3 Xrotation Yrotation Zrotation
										JOINT LeftHandIndex3
										{
											OFFSET 3.323853 0.000000 0.000000
											CHANNELS 3 Xrotation Yrotation Zrotation
											End Site
											{
												OFFSET -1.135597 3.097809 0.402452
											}
										}
									}
								}
								JOINT LeftHandMiddle1
								{
									OFFSET 11.335861 0.000000 0.000000
									CHANNELS 3 Xrotation Yrotation Zrotation
									JOINT LeftHandMiddle2
									{
										OFFSET 3.410492 0.000000 0.000000
										CHANNELS 3 Xrotation Yrotation Zrotation
										JOINT LeftHandMiddle3
										{
											OFFSET 3.312172 0.000000 0.000000
											CHANNELS 3 Xrotation Yrotation Zrotation
											End Site
											{
												OFFSET -1.150200 3.080154 0.400270
											}
										}
									}
								}
								JOINT LeftHandRing1
								{
									OFFSET 11.514786 -0.013176 -3.003090
									CHANNELS 3 Xrotation Yrotation Zrotation
									JOINT LeftHandRing2
									{
										OFFSET 3.053307 0.000000 0.000000
										CHANNELS 3 Xrotation Yrotation Zrotation
										JOINT LeftHandRing3
										{
											OFFSET 3.295807 0.000000 0.000000
											CHANNELS 3 Xrotation Yrotation Zrotation
											End Site
											{
												OFFSET -1.281006 3.013344 0.375733
											}
										}
									}
								}
								JOINT LeftHandPinky1
								{
									OFFSET 10.518692 -0.960396 -5.730441
									CHANNELS 3 Xrotation Yrotation Zrotation
									JOINT LeftHandPinky2
									{
										OFFSET 2.861649 0.000000 0.000000
										CHANNELS 3 Xrotation Yrotation Zrotation
										JOINT LeftHandPinky3
										{
											OFFSET 2.863380 0.000000 0.000000
											CHANNELS 3 Xrotation Yrotation Zrotation
											End Site
											{
												OFFSET -0.843597 2.711159 0.369971
											}
										}
									}
								}
							}
							JOINT LSleeve
							{
								OFFSET 6.676277 -0.344902 -1.011730
								CHANNELS 3 Xrotation Yrotation Zrotation
								End Site
								{
									OFFSET 0.000000 14.885353 0.000000
								}
							}
						}
					}
				}
				JOINT RightShoulder
				{
					OFFSET -6.197800 13.665199 -4.064700
					CHANNELS 3 Xrotation Yrotation Zrotation
					JOINT RightArm
					{
						OFFSET -7.778100 -0.187103 -1.709300
						CHANNELS 3 Xrotation Yrotation Zrotation
						JOINT RightForeArm
						{
							OFFSET -22.049376 0.000000 0.000000
							CHANNELS 3 Xrotation Yrotation Zrotation
							JOINT RightHand
							{
								OFFSET -23.009392 0.000000 0.000000
								CHANNELS 3 Xrotation Yrotation Zrotation
								JOINT RightHandThumb1
								{
									OFFSET -3.507191 -2.063065 3.133727
									CHANNELS 3 Xrotation Yrotation Zrotation
									JOINT RightHandThumb2
									{
										OFFSET -3.101337 -1.790558 1.790558
										CHANNELS 3 Xrotation Yrotation Zrotation
										JOINT RightHandThumb3
										{
											OFFSET -3.058640 -1.765907 1.765906
											CHANNELS 3 Xrotation Yrotation Zrotation
											End Site
											{
												OFFSET 0.415260 3.926476 -0.049563
											}
										}
									}
								}
								JOINT RightHandIndex1
								{
									OFFSET -11.334419 -0.901459 3.706815
									CHANNELS 3 Xrotation Yrotation Zrotation
									JOINT RightHandIndex2
									{
										OFFSET -3.283112 0.000000 0.000000
										CHANNELS 3 Xrotation Yrotation Zrotation
										JOINT RightHandIndex3
										{
											OFFSET -3.323853 0.000000 0.000000
											CHANNELS 3 Xrotation Yrotation Zrotation
											End Site
											{
												OFFSET 1.135597 3.097809 0.402452
											}
										}
									}
								}
								JOINT RightHandMiddle1
								{
									OFFSET -11.335861 0.000000 0.000000
									CHANNELS 3 Xrotation Yrotation Zrotation
									JOINT RightHandMiddle2
									{
										OFFSET -3.410492 0.000000 0.000000
										CHANNELS 3 Xrotation Yrotation Zrotation
										JOINT RightHandMiddle3
										{
											OFFSET -3.312172 0.000000 0.000000
											CHANNELS 3 Xrotation Yrotation Zrotation
											End Site
											{
												OFFSET 1.150200 3.080154 0.400270
											}
										}
									}
								}
								JOINT RightHandRing1
								{
									OFFSET -11.514786 -0.013176 -3.003090
									CHANNELS 3 Xrotation Yrotation Zrotation
									JOINT RightHandRing2
									{
										OFFSET -3.053307 0.000000 0.000000
										CHANNELS 3 Xrotation Yrotation Zrotation
										JOINT RightHandRing3
										{
											OFFSET -3.295807 0.000000 0.000000
											CHANNELS 3 Xrotation Yrotation Zrotation
											End Site
											{
												OFFSET 1.281006 3.013344 0.375733
											}
										}
									}
								}
								JOINT RightHandPinky1
								{
									OFFSET -10.518692 -0.960396 -5.730441
									CHANNELS 3 Xrotation Yrotation Zrotation
									JOINT RightHandPinky2
									{
										OFFSET -2.861649 0.000000 0.000000
										CHANNELS 3 Xrotation Yrotation Zrotation
										JOINT RightHandPinky3
										{
											OFFSET -2.863380 0.000000 0.000000
											CHANNELS 3 Xrotation Yrotation Zrotation
											End Site
											{
												OFFSET 0.843597 2.711159 0.369971
											}
										}
									}
								}
							}
							JOINT RSleeve
							{
								OFFSET -6.676277 -0.344902 -1.011730
								CHANNELS 3 Xrotation Yrotation Zrotation
								End Site
								{
									OFFSET 0.000000 14.885353 0.000000
								}
							}
						}
					}
				}
				JOINT Backpack
				{
					OFFSET 0.000000 -2.471497 36.677502
					CHANNELS 3 Xrotation Yrotation Zrotation
					End Site
					{
						OFFSET 0.000000 20.427315 0.000000
					}
				}
				JOINT Hood
				{
					OFFSET 0.000000 18.754097 -10.431000
					CHANNELS 3 Xrotation Yrotation Zrotation
					JOINT Hood1
					{
						OFFSET 0.000000 -5.011002 -7.685901
						CHANNELS 3 Xrotation Yrotation Zrotation
						End Site
						{
							OFFSET 0.000000 9.175140 0.000000
						}
					}
				}
				JOINT LHoodieString
				{
					OFFSET 5.250500 16.397697 3.089900
					CHANNELS 3 Xrotation Yrotation Zrotation
					JOINT LHoodieString1
					{
						OFFSET 0.257700 -6.364304 3.694600
						CHANNELS 3 Xrotation Yrotation Zrotation
						JOINT LHoodieString2
						{
							OFFSET 0.000000 -9.643799 2.679100
							CHANNELS 3 Xrotation Yrotation Zrotation
							End Site
							{
								OFFSET 0.000000 10.009018 0.000000
							}
						}
					}
				}
				JOINT RHoodieString
				{
					OFFSET -5.250500 16.397697 3.089900
					CHANNELS 3 Xrotation Yrotation Zrotation
					JOINT RHoodieString1
					{
						OFFSET -0.257700 -6.364304 3.694600
						CHANNELS 3 Xrotation Yrotation Zrotation
						JOINT RHoodieString2
						{
							OFFSET 0.000000 -9.643799 2.679100
							CHANNELS 3 Xrotation Yrotation Zrotation
							End Site
							{
								OFFSET 0.000000 10.009018 0.000000
							}
						}
					}
				}
			}
			JOINT LBackpack_Strap
			{
				OFFSET 15.223200 -7.719803 -6.610900
				CHANNELS 3 Xrotation Yrotation Zrotation
				End Site
				{
					OFFSET 0.000000 16.040596 0.000000
				}
			}
			JOINT RBackpack_Strap
			{
				OFFSET -15.223000 -7.719803 -6.610900
				CHANNELS 3 Xrotation Yrotation Zrotation
				End Site
				{
					OFFSET 0.000000 16.040596 0.000000
				}
			}
		}
	}
	JOINT BoyFacialAnim_Joint
	{
		OFFSET 1.000000 -82.208099 -1.550900
		CHANNELS 3 Xrotation Yrotation Zrotation
		End Site
		{
			OFFSET 0.000000 30.012791 0.000000
		}
	}
}
MOTION
Frames: 4
Frame Time: 0.033333
-1.351492 79.757469 3.715328 -11.566192 5.263912 4.059107 0.000000 0.000000 -0.000000 1.703442 15.804783 3.889080 27.050220 -9.903474 1.413495 -17.281104 -1.712605 -2.429754 -0.000000 -0.000000 0.000000 -0.000000 -0.000000 0.000000 0.000002 -0.000001 -0.000000 -0.788008 -10.052288 -6.956568 30.995211 -4.610307 -5.295885 -19.291270 -0.623041 8.323663 -0.000000 0.000000 0.000000 -0.000000 0.000000 0.000000 -0.000001 -0.000001 -0.000000 4.455078 -1.725655 -2.078908 2.143107 -0.209532 0.401845 2.143731 -0.182452 0.392078 8.467293 -1.155230 4.457886 -13.342529 -5.025114 2.368256 0.000000 0.000000 0.000000 0.000000 0.000000 0.000000 0.000000 0.000000 0.000000 1.045398 0.458996 1.228692 4.776431 -3.629514 -85.693759 -0.000003 -16.811858 -0.000005 -1.782952 -1.156433 -3.553419 -3.138213 3.898030 -0.017064 -1.652202 27.157723 -5.128435 0.000000 -0.000000 -0.000000 -1.125946 -1.476735 -22.097621 1.034933 3.635669 -31.770079 -0.000001 0.000001 -0.000009 -0.186341 0.588696 -18.791322 1.788299 4.633555 -42.189819 -0.000000 -0.000000 0.000000 1.729091 5.025690 -27.168155 0.721962 3.074273 -26.426068 0.000001 0.000002 0.000002 3.240407 7.881296 -27.353625 0.512192 -1.459769 -22.567993 0.000000 0.000000 -0.000002 0.000000 0.000002 -0.000000 -0.210468 9.073835 11.939842 14.637901 11.846088 62.687770 0.000012 21.075623 -0.000030 18.854356 -0.579871 14.196298 -26.173654 -0.359973 6.573792 18.372582 -35.063907 8.625751 -0.000003 0.000003 -0.000002 1.300411 11.565418 -6.025618 0.944575 -3.504135 30.163748 -0.000001 0.000001 -0.000001 -0.429224 2.568601 8.215078 1.293991 -4.044829 35.467735 -0.000003 -0.000004 -0.000003 1.768806 -5.114210 27.221972 2.957964 -5.692815 54.884296 -0.000001 0.000001 0.000002 -0.469027 -1.867130 38.871624 1.501045 -4.319997 38.306129 -0.000001 -0.000003 -0.000002 -0.000000 0.000001 -0.000001 -0.000000 -0.000000 -0.000000 -0.000000 -0.000000 -0.000000 -0.000000 -0.000000 -0.000000 -0.000000 -0.000000 -0.000000 -0.000000 -0.000000 -0.000000 -0.000000 -0.000000 0.000000 -0.000000 -0.000000 -0.000000 -0.000000 -0.000000 -0.000000 -0.000000 -0.000000 0.000000 -0.000000 -0.000000 0.000000 -0.000000 -0.000000 0.000000 0.000000 0.000000 -0.000000 
-1.346550 79.763786 3.709234 -11.579604 5.267176 4.060312 -0.000000 -0.000000 0.000000 1.717194 15.894868 3.971469 27.003807 -9.909899 1.294872 -17.248861 -1.842487 -2.386066 0.000000 -0.000000 0.000000 0.000000 -0.000000 -0.000000 -0.000001 0.000000 -0.000000 -0.753482 -10.020942 -6.942093 30.952655 -4.614207 -5.316024 -19.270127 -0.602656 8.339857 -0.000000 0.000000 0.000000 -0.000000 0.000000 0.000000 0.000000 -0.000001 0.000000 4.493981 -1.713859 -2.082319 2.143230 -0.207698 0.409381 2.143879 -0.180485 0.399649 8.490347 -1.156927 4.461008 -13.243749 -5.015286 2.335434 -0.000000 0.000000 0.000000 -0.000000 0.000000 0.000000 -0.000000 0.000000 0.000000 1.047762 0.476204 1.233044 4.927907 -3.558856 -85.740676 0.000004 -16.968177 0.000008 -1.750020 -1.108317 -3.606864 -3.178404 3.900406 0.005192 -1.643225 27.152717 -5.139981 -0.000000 -0.000001 -0.000000 -1.127789 -1.481981 -22.094916 1.035176 3.636057 -31.773801 -0.000001 0.000001 -0.000002 -0.186959 0.586724 -18.789842 1.788204 4.633445 -42.188572 0.000001 0.000001 -0.000001 1.726246 5.020173 -27.168613 0.722069 3.074489 -26.427995 0.000000 -0.000001 -0.000002 3.241592 7.881060 -27.366140 0.512486 -1.459066 -22.574327 -0.000001 0.000000 0.000001 -0.000000 0.000001 0.000001 -0.214700 9.137249 11.961732 14.751662 11.881899 62.639842 0.000007 21.107692 -0.000007 18.794234 -0.499778 14.122042 -26.168943 -0.368487 6.564143 18.420100 -35.039543 8.661202 -0.000001 -0.000000 0.000000 1.317851 11.587739 -6.103160 0.946379 -3.507251 30.193363 0.000003 0.000000 0.000004 -0.428175 2.575393 8.183423 1.291893 -4.041900 35.438187 0.000004 -0.000002 -0.000001 1.766114 -5.110198 27.207973 2.957844 -5.692745 54.882964 -0.000000 0.000001 0.000000 -0.466539 -1.871065 38.880609 1.499542 -4.318105 38.286274 0.000000 0.000000 -0.000001 -0.000002 -0.000002 0.000001 -0.000000 -0.000000 -0.000000 -0.000000 -0.000000 -0.000000 -0.000000 -0.000000 -0.000000 -0.000000 -0.000000 -0.000000 -0.000000 -0.000000 -0.000000 0.000000 -0.000000 -0.000000 -0.000000 -0.000000 -0.000000 -0.000000 -0.000000 -0.000000 0.000000 -0.000000 -0.000000 -0.000001 -0.000000 -0.000000 -0.000001 -0.000000 -0.000000 -0.000000 -0.000000 0.000000 
-1.343346 79.766830 3.707808 -11.586289 5.285210 4.063279 0.000000 0.000000 0.000000 1.718631 15.956574 4.019052 26.983520 -9.912563 1.237405 -17.232400 -1.935754 -2.367439 -0.000000 0.000001 -0.000000 -0.000000 0.000001 -0.000000 -0.000001 -0.000001 -0.000000 -0.731774 -10.023181 -6.932145 30.924341 -4.625127 -5.340189 -19.260988 -0.579156 8.359799 -0.000000 -0.000001 0.000000 -0.000000 -0.000001 0.000000 0.000000 0.000000 0.000001 4.523343 -1.720782 -2.089036 2.151479 -0.208369 0.422623 2.152184 -0.180972 0.412825 8.523903 -1.148928 4.437904 -13.186197 -4.995789 2.341701 -0.000000 0.000000 0.000001 -0.000000 0.000000 0.000001 -0.000000 0.000000 0.000001 1.051225 0.531102 1.211710 5.178201 -3.554337 -85.732828 0.000001 -17.220271 0.000007 -1.798964 -1.044403 -3.650132 -3.200470 3.898812 0.016303 -1.634936 27.148113 -5.150642 -0.000000 -0.000001 -0.000000 -1.129933 -1.487160 -22.096101 1.035619 3.636762 -31.780758 -0.000001 -0.000000 -0.000005 -0.187527 0.585235 -18.791874 1.788108 4.633334 -42.187404 -0.000000 -0.000001 0.000005 1.723835 5.015291 -27.171744 0.722192 3.074746 -26.430382 0.000001 -0.000001 -0.000002 3.241991 7.879537 -27.377823 0.512856 -1.458180 -22.582251 -0.000001 0.000000 -0.000002 -0.000000 0.000002 -0.000001 -0.218727 9.188836 11.979460 14.768742 11.866049 62.625506 -0.000006 21.062137 -0.000000 18.886603 -0.419994 14.088835 -26.164505 -0.372211 6.556928 18.473655 -35.012052 8.701183 -0.000000 0.000002 0.000000 1.332875 11.608410 -6.168784 0.948482 -3.510875 30.227784 -0.000002 0.000002 0.000005 -0.427875 2.585719 8.156237 1.289938 -4.039126 35.410030 0.000004 0.000001 -0.000000 1.762951 -5.105028 27.196731 2.957661 -5.692614 54.881185 -0.000001 -0.000004 -0.000000 -0.465511 -1.873095 38.888980 1.497944 -4.316097 38.265151 -0.000000 0.000001 -0.000003 -0.000001 -0.000001 0.000001 -0.000000 0.000000 0.000000 -0.000000 0.000000 0.000000 -0.000000 0.000000 0.000000 -0.000000 0.000000 0.000000 -0.000000 0.000000 0.000000 0.000000 -0.000000 0.000000 -0.000000 0.000000 0.000000 -0.000000 0.000000 0.000000 0.000000 -0.000000 0.000000 -0.000000 -0.000000 -0.000000 -0.000000 -0.000000 -0.000000 0.000000 0.000000 0.000000 
-1.343641 79.767204 3.707603 -11.584500 5.314032 4.063996 -0.000000 0.000001 0.000001 1.703035 15.981102 4.029334 26.990905 -9.911708 1.250446 -17.230414 -1.983196 -2.378296 0.000000 0.000000 0.000000 0.000000 0.000000 0.000000 -0.000000 0.000002 -0.000000 -0.722133 -10.013969 -6.896283 30.919932 -4.605760 -5.353991 -19.245656 -0.743696 8.340805 0.000000 -0.000000 -0.000000 0.000000 -0.000000 -0.000000 -0.000000 -0.000001 -0.000000 4.544416 -1.739191 -2.093769 2.164680 -0.210628 0.437217 2.165447 -0.183039 0.427290 8.572022 -1.136724 4.403074 -13.172296 -4.975401 2.363140 -0.000000 -0.000000 0.000000 -0.000000 -0.000000 0.000000 -0.000000 -0.000000 0.000000 1.054550 0.592484 1.191684 5.471993 -3.579242 -85.708772 0.000003 -17.516452 0.000011 -1.900357 -0.975599 -3.675142 -3.202899 3.895644 0.017472 -1.627115 27.143768 -5.160644 -0.000001 0.000001 -0.000000 -1.131591 -1.490534 -22.100177 1.036431 3.638077 -31.793643 -0.000001 0.000001 -0.000003 -0.188099 0.583785 -18.794534 1.787976 4.633200 -42.185810 0.000002 -0.000001 0.000005 1.721795 5.011033 -27.175883 0.722254 3.074857 -26.431422 0.000001 0.000001 0.000001 3.241393 7.876426 -27.387971 0.513115 -1.457564 -22.587832 -0.000001 0.000001 -0.000002 -0.000000 0.000001 0.000000 -0.223063 9.233091 12.001558 14.717931 11.779379 62.641086 -0.000002 20.993374 0.000017 19.100103 -0.349960 14.098970 -26.165145 -0.371136 6.549731 18.531816 -34.982159 8.744666 -0.000001 0.000002 0.000000 1.347011 11.628446 -6.229810 0.950168 -3.513733 30.255337 -0.000003 0.000002 0.000002 -0.428364 2.601046 8.131228 1.288090 -4.036564 35.384133 0.000005 0.000000 -0.000004 1.760223 -5.100566 27.186409 2.957191 -5.692261 54.876516 -0.000001 0.000000 0.000004 -0.466130 -1.873157 38.898627 1.496098 -4.313748 38.240460 0.000001 -0.000000 0.000000 -0.000003 -0.000000 -0.000000 -0.000000 0.000000 -0.000000 -0.000000 0.000000 -0.000000 -0.000000 0.000000 -0.000000 -0.000000 0.000000 -0.000000 -0.000000 0.000000 -0.000000 -0.000000 0.000000 -0.000000 -0.000000 0.000000 -0.000000 -0.000000 0.000000 -0.000000 -0.000000 0.000000 -0.000000 -0.000000 0.000000 -0.000000 -0.000000 0.000000 -0.000000 -0.000000 0.000001 0.000001 
